<?xml version="1.0" encoding="UTF-8"?>
<svg width="62px" height="75px" viewBox="0 0 62 75" version="1.1" xmlns="http://www.w3.org/2000/svg" xmlns:xlink="http://www.w3.org/1999/xlink">
    <!-- Generator: Sketch 49.2 (51160) - http://www.bohemiancoding.com/sketch -->
    <title>cyb</title>
    <desc>Created with Sketch.</desc>
    <defs></defs>
    <g id="Page-1" stroke="none" stroke-width="1" fill="none" fill-rule="evenodd">
        <g id="Desktop-HD" transform="translate(-1280.000000, -62.000000)">
            <g id="cyb" transform="translate(1280.000000, 66.000000)">
                <path d="M23,63.4072951 C22.7740139,65.7945972 21.8802796,67.656633 20.3230357,68.9919973 C18.7672987,70.3344815 16.7016299,71 14.1159122,71 C12.3109347,71 10.7204038,70.5806943 9.34573971,69.7305002 C7.97102926,68.8860766 6.91354946,67.6838447 6.16609816,66.1295211 C5.4185965,64.570916 5.02895563,62.7589404 5,60.7022309 L5,58.6112377 C5,56.4972725 5.37372766,54.6352426 6.13134859,53.030817 C6.89034144,51.4206767 7.97677687,50.179786 9.39065286,49.3081506 C10.8116464,48.435116 12.4471348,48 14.302775,48 C16.8044563,48 18.8121695,48.669802 20.3404095,50.0066074 C21.8686957,51.3419299 22.7508482,53.2383331 23,55.6871824 L19.0786951,55.6871824 C18.8918322,54.0828065 18.4166944,52.9191837 17.6591158,52.2035611 C16.8942423,51.4937109 15.7745219,51.1358529 14.302777,51.1358529 C12.5934198,51.1358529 11.2752064,51.7569999 10.3583064,52.9921661 C9.44273391,54.2273323 8.97196974,56.0450305 8.9502646,58.4322908 L8.9502646,60.4160078 C8.9502646,62.8376434 9.3862792,64.6882759 10.2626861,65.9563365 C11.1405072,67.2315529 12.4239751,67.862696 14.1159142,67.862696 C15.6615279,67.862696 16.8203756,67.5220973 17.6011582,66.8351355 C18.3834054,66.1466848 18.8745028,65.0059882 19.0786951,63.4072911 L23,63.4072911" id="Shape" fill="#FFFFFF" fill-rule="nonzero"></path>
                <path d="M45.8982384,61.0766803 L45.8982384,67.9182127 L50.2265307,67.9182127 C51.4480612,67.9182127 52.4000411,67.6270538 53.0882247,67.0334862 C53.777814,66.4399265 54.1189967,65.6157272 54.1189967,64.5663811 C54.1189967,62.2920133 52.9319424,61.1259595 50.5462772,61.0766803 L45.8982384,61.0766803 Z M45.8982384,58.2636011 L49.7175948,58.2636011 C50.9276266,58.2636011 51.8738662,57.994936 52.5562815,57.4562305 C53.2401803,56.9175251 53.581363,56.1537629 53.581363,55.164944 C53.581363,54.0776604 53.2673907,53.2914045 52.6351215,52.8075553 C52.0028941,52.3251262 51.0222203,52.0831566 49.6831665,52.0831566 L45.8982384,52.0831566 L45.8982384,58.2636011 Z M42,71 L42,49 L49.6831665,49 C52.2208232,49 54.153429,49.5007131 55.4738879,50.5007799 C56.8014848,51.4952169 57.4623703,52.9833758 57.4623703,54.956759 C57.4623703,55.9624908 57.1885647,56.8682888 56.6336879,57.6756653 C56.0789028,58.4844502 55.2673798,59.1047133 54.1978846,59.5492048 C55.4079104,59.8740994 56.3484195,60.4789539 57.0093528,61.3678822 C57.6702821,62.2582306 58,63.3300234 58,64.5818797 C58,66.6424856 57.3276079,68.230494 55.978489,69.3402713 C54.629414,70.4500487 52.6968081,71 50.1763886,71 L42,71 Z" id="Shape" fill="#FFFFFF" fill-rule="nonzero"></path>
                <path d="M15,37.5021811 C15,41.6438692 11.6448563,45 7.49997892,45 C3.36095821,45 0,41.6438692 0,37.5021811 C0,33.3561288 3.36095821,30 7.49997892,30 C11.6448563,30.000002 15,33.3561288 15,37.5021811" id="Shape" fill="#FFFFFF" fill-rule="nonzero"></path>
                <path d="M57.0201674,30.4385691 C60.9226775,31.8370743 62.9540765,36.1206687 61.5607998,40.0232331 C60.1676154,43.9243062 55.8810758,45.9535682 51.9785236,44.5607914 C48.0760617,43.1680629 46.0461164,38.8786938 47.4393489,34.9761274 C48.8311237,31.0808269 53.123436,29.0458365 57.0201674,30.4385691" id="Shape" fill="#FFFFFF" fill-rule="nonzero"></path>
                <path d="M31.5000212,71 L31.5000212,0 M8,34.8638872 L13.8739443,26.1465152 L31.5000212,1.42108547e-14 L49.1246377,26.1465152 L55,34.8638872" id="Shape" stroke="#FFFFFF" stroke-width="4"></path>
                <polyline id="Shape" stroke="#FFFFFF" stroke-width="4" points="14 27 31.4834096 46 49 27"></polyline>
            </g>
        </g>
    </g>
</svg>